<svg xmlns="http://www.w3.org/2000/svg" width="19" height="20" viewBox="0 0 19 20">
  <g>
    <path d="M13.6306762,8.65783691 L13.6306762,4.8728943 C13.6306762,4.76455688 13.5806274,4.66445922 13.5098266,4.58526609 L9.26635742,0.129241953 C9.1871643,0.0459289453 9.07455445,0 8.96209719,0 L2.23419187,0 C0.992126484,0 0,1.01287844 0,2.25509645 L0,14.9771118 C0,16.2193298 0.992126484,17.2155762 2.23419187,17.2155762 L7.54486086,17.2155762 C8.54934691,18.8829041 10.3752136,20 12.4551391,20 C15.6147766,20 18.1950447,17.432251 18.1950447,14.2684937 C18.1993103,11.5048218 16.2150574,9.19555664 13.6306762,8.65783691 Z M9.37896727,1.46316527 L12.2259521,4.46014406 L10.3793335,4.46014406 C9.82910156,4.46014406 9.37896727,4.00588988 9.37896727,3.45565797 L9.37896727,1.46316527 Z M2.23419188,16.3818359 C1.45477297,16.3818359 0.833740234,15.7565308 0.833740234,14.9771118 L0.833740234,2.25509645 C0.833740234,1.47140504 1.45477297,0.833740234 2.23419188,0.833740234 L8.54522703,0.833740234 L8.54522703,3.45565797 C8.54522703,4.46853637 9.36645508,5.2938843 10.3793335,5.2938843 L12.796936,5.2938843 L12.796936,8.54934691 C12.6719666,8.54522703 12.5718689,8.53271484 12.4635315,8.53271484 C11.0087586,8.53271484 9.67071531,9.0913391 8.6619568,9.96673586 L3.3680725,9.96673586 C3.13873289,9.96673586 2.95120238,10.1542664 2.95120238,10.3834534 C2.95120238,10.612793 3.13873289,10.8003235 3.3680725,10.8003235 L7.88665773,10.8003235 C7.59063719,11.2171936 7.34466555,11.6340637 7.15301516,12.0925903 L3.3680725,12.0925903 C3.13873289,12.0925903 2.95120238,12.2801209 2.95120238,12.5094605 C2.95120238,12.7386475 3.13873289,12.9263305 3.3680725,12.9263305 L6.88201906,12.9263305 C6.77780152,13.3432007 6.72363281,13.8058472 6.72363281,14.2684937 C6.72363281,15.0187683 6.86950684,15.7608032 7.13211059,16.3861084 L2.23419188,16.3861084 L2.23419188,16.3818359 Z M12.4594116,19.1705322 C9.75830078,19.1705322 7.56149293,16.9737244 7.56149293,14.2726135 C7.56149293,11.5715027 9.75402832,9.37469484 12.4594116,9.37469484 C15.1646423,9.37469484 17.3571777,11.5715027 17.3571777,14.2726135 C17.3571777,16.9737244 15.1605225,19.1705322 12.4594116,19.1705322 Z"/>
    <path d="M3.3680725 8.71200562L7.59063719 8.71200562C7.8199768 8.71200562 8.00750734 8.5243225 8.00750734 8.29513551 8.00750734 8.0657959 7.8199768 7.87826539 7.59063719 7.87826539L3.3680725 7.87826539C3.13873289 7.87826539 2.95120238 8.0657959 2.95120238 8.29513551 2.95120238 8.5243225 3.13873289 8.71200562 3.3680725 8.71200562zM12.7552795 11.1962891C12.6760864 11.1129761 12.567749 11.0629273 12.4510193 11.0629273 12.3342895 11.0629273 12.2259521 11.1129761 12.146759 11.1962891L9.70397949 13.8182068C9.54559328 13.9849854 9.55810547 14.251709 9.72488402 14.4059754 9.89166258 14.5643616 10.1625061 14.5518494 10.3208923 14.3852234L12.0466614 12.5386047 12.0466614 17.0904541C12.0466614 17.3197937 12.2341919 17.5073242 12.4635315 17.5073242 12.6927185 17.5073242 12.8804016 17.3197937 12.8804016 17.0904541L12.8804016 12.5386047 14.5935059 14.3852234C14.6769714 14.4726562 14.7853088 14.5185852 14.8979187 14.5185852 14.9978638 14.5185852 15.0979614 14.4810486 15.1812744 14.4059754 15.348053 14.2475891 15.3605652 13.9849854 15.2021789 13.8182068L12.7552795 11.1962891z"/>
  </g>
</svg>
